<?xml version="1.0" standalone="no"?>
<!DOCTYPE svg PUBLIC "-//W3C//DTD SVG 20010904//EN"
 "http://www.w3.org/TR/2001/REC-SVG-20010904/DTD/svg10.dtd">
<svg version="1.0" xmlns="http://www.w3.org/2000/svg"
 width="1072.000000pt" height="718.000000pt" viewBox="0 0 1072.000000 718.000000"
 preserveAspectRatio="xMidYMid meet">

<g transform="translate(0.000000,718.000000) scale(0.100000,-0.100000)"
fill="#000000" stroke="none">
<path d="M1058 6187 c6 -7 12 -44 14 -81 3 -62 6 -71 30 -89 23 -17 34 -19 65
-11 44 10 57 39 65 137 l5 57 -36 0 c-32 -1 -34 -2 -18 -14 21 -16 24 -122 4
-150 -18 -24 -48 -17 -64 14 -19 37 -17 130 2 130 8 0 15 5 15 10 0 6 -21 10
-46 10 -37 0 -44 -3 -36 -13z"/>
<path d="M1622 6144 c-13 -9 -22 -11 -22 -5 0 6 -10 11 -22 11 -22 0 -23 -4
-23 -75 l0 -75 37 0 c41 0 59 15 28 23 -15 4 -20 14 -20 41 0 36 21 58 48 49
13 -5 17 33 4 41 -5 3 -18 -2 -30 -10z"/>
<path d="M1272 6138 c-26 -26 -11 -57 40 -83 12 -5 20 -14 20 -20 -2 -17 -35
-18 -44 -1 -12 22 -28 20 -28 -4 0 -28 61 -38 95 -16 39 26 32 52 -22 80 -36
18 -42 33 -17 43 10 4 20 0 26 -10 12 -23 28 -21 28 3 0 17 -7 20 -43 20 -24
0 -48 -5 -55 -12z"/>
<path d="M1417 6132 c-10 -10 -17 -35 -17 -55 0 -61 50 -94 101 -67 27 15 24
28 -6 22 -27 -5 -55 12 -55 34 0 10 13 14 39 14 47 0 54 8 38 41 -16 32 -75
39 -100 11z m61 -20 c3 -17 -2 -22 -17 -22 -14 0 -21 6 -21 18 0 38 33 41 38
4z"/>
<path d="M1682 6133 c-14 -27 2 -58 37 -73 17 -7 31 -19 31 -26 0 -20 -37 -17
-49 4 -8 14 -12 15 -23 4 -30 -31 58 -57 96 -29 28 20 17 59 -21 76 -18 8 -34
20 -37 28 -8 21 25 29 39 10 16 -23 25 -21 25 3 0 17 -7 20 -45 20 -32 0 -47
-5 -53 -17z"/>
<path d="M1236 5549 c-30 -24 -36 -81 -11 -116 18 -26 75 -39 102 -24 17 8 25
5 48 -19 16 -17 33 -30 39 -30 5 0 -5 15 -22 33 -29 30 -32 37 -22 61 13 36 3
72 -27 96 -33 26 -73 25 -107 -1z m98 -10 c50 -40 21 -119 -44 -119 -33 0 -70
33 -70 63 0 28 19 57 43 67 33 13 42 12 71 -11z"/>
<path d="M1533 5503 c-22 -8 -14 -33 13 -43 17 -7 24 -15 20 -25 -3 -8 -1 -15
4 -15 21 0 9 37 -16 48 -30 14 -22 36 9 27 17 -5 19 -4 7 4 -16 12 -19 12 -37
4z"/>
<path d="M1910 5465 c0 -27 2 -46 5 -43 8 8 9 77 2 85 -4 3 -7 -15 -7 -42z"/>
<path d="M5181 5463 c1 -27 3 -40 6 -30 2 9 7 17 10 17 3 0 12 -8 20 -17 14
-17 14 -17 9 1 -4 10 -1 25 5 32 15 18 -5 44 -32 44 -16 0 -19 -7 -18 -47z
m44 17 c0 -8 -8 -16 -17 -18 -13 -2 -18 3 -18 18 0 15 5 20 18 18 9 -2 17 -10
17 -18z"/>
<path d="M7850 5465 c0 -40 2 -45 23 -44 16 1 18 2 5 6 -10 2 -18 11 -18 18 0
7 8 16 18 18 16 4 16 5 0 6 -10 0 -18 7 -18 15 0 8 8 17 18 19 13 4 11 5 -5 6
-21 1 -23 -4 -23 -44z"/>
<path d="M7969 5493 c-1 -10 0 -28 1 -40 1 -17 -4 -23 -19 -23 -29 0 -36 18
-14 42 12 15 14 20 4 16 -45 -14 -38 -68 9 -68 29 0 30 2 30 45 0 43 -9 64
-11 28z"/>
<path d="M8829 5493 c-1 -10 -2 -27 -3 -38 -1 -28 -46 -34 -46 -6 0 11 8 25
18 30 9 6 13 10 7 11 -22 0 -37 -18 -33 -41 2 -19 10 -25 36 -27 32 -3 32 -3
32 42 0 44 -8 65 -11 29z"/>
<path d="M5517 5492 c-3 -4 -2 -22 0 -39 4 -22 11 -33 22 -32 10 0 11 2 4 6
-16 6 -17 50 -1 55 8 3 6 7 -5 11 -9 3 -18 3 -20 -1z"/>
<path d="M5657 5492 c-3 -4 -2 -22 0 -39 4 -22 11 -33 22 -32 10 0 11 2 4 6
-16 6 -17 35 -2 50 7 7 6 12 -5 16 -8 3 -17 3 -19 -1z"/>
<path d="M7141 5496 c-2 -20 24 -76 34 -76 7 0 17 17 23 37 15 49 8 55 -9 8
l-14 -37 -17 39 c-9 21 -17 34 -17 29z"/>
<path d="M7318 5495 c-2 -3 -2 -20 0 -40 3 -25 9 -35 21 -34 10 0 11 2 4 6
-16 6 -17 35 -2 50 7 7 6 12 -4 16 -8 3 -17 4 -19 2z"/>
<path d="M8037 5494 c-9 -9 9 -68 21 -70 7 -1 8 0 2 3 -13 6 -13 36 1 50 7 7
6 12 -4 16 -8 3 -17 4 -20 1z"/>
<path d="M8571 5458 c1 -40 2 -41 9 -13 l7 30 11 -27 c11 -27 32 -39 32 -19 0
5 3 18 6 28 6 17 6 17 -8 -1 -14 -18 -15 -17 -27 13 -19 43 -31 39 -30 -11z"/>
<path d="M8644 5484 c3 -9 6 -27 6 -40 0 -13 3 -24 8 -24 4 0 6 18 4 40 -2 22
-9 40 -14 40 -6 0 -7 -7 -4 -16z"/>
<path d="M9088 5495 c-2 -3 -2 -20 0 -40 3 -25 9 -35 21 -34 10 0 11 2 4 6
-16 6 -17 35 -2 50 7 7 6 12 -4 16 -8 3 -17 4 -19 2z"/>
<path d="M1612 5478 c-14 -14 -16 -44 -3 -52 4 -3 6 5 4 18 -6 31 16 45 34 21
11 -16 13 -16 13 -3 0 9 -7 19 -16 22 -20 8 -18 8 -32 -6z"/>
<path d="M1690 5475 c-14 -17 -10 -47 8 -53 11 -3 11 -1 0 18 -11 18 -11 23 6
36 11 8 15 14 9 14 -6 0 -16 -7 -23 -15z"/>
<path d="M1737 5483 c-2 -5 0 -21 4 -38 7 -29 7 -29 8 8 1 35 -3 46 -12 30z"/>
<path d="M1788 5482 c-13 -2 -18 -13 -17 -35 1 -21 3 -25 6 -12 3 11 12 26 21
32 18 15 14 21 -10 15z"/>
<path d="M1835 5474 c-9 -9 -14 -23 -11 -31 3 -8 6 -17 6 -19 0 -2 5 -4 11 -4
8 0 8 5 -1 15 -10 12 -10 18 0 30 7 9 19 14 27 11 8 -3 11 -1 8 4 -9 14 -21
12 -40 -6z"/>
<path d="M1948 5479 c6 -7 12 -23 12 -36 0 -13 4 -23 9 -23 14 0 -3 63 -19 68
-12 4 -13 2 -2 -9z"/>
<path d="M2083 5455 c0 -22 2 -30 4 -17 2 12 2 30 0 40 -3 9 -5 -1 -4 -23z"/>
<path d="M5260 5475 c-13 -15 -5 -55 11 -55 6 0 7 6 2 13 -13 21 -12 35 4 41
18 7 35 -2 28 -15 -4 -5 -1 -9 4 -9 14 0 14 13 -1 28 -16 16 -33 15 -48 -3z"/>
<path d="M5341 5430 c1 -30 4 -45 6 -32 3 16 11 22 29 22 50 0 41 65 -10 65
-25 1 -26 -1 -25 -55z m55 11 c-4 -6 -16 -11 -27 -11 -21 0 -27 35 -6 43 16 6
41 -18 33 -32z"/>
<path d="M5432 5458 c-2 -38 9 -48 41 -40 13 3 17 14 15 41 l-1 36 -4 -32 c-3
-24 -9 -33 -23 -33 -14 0 -20 9 -23 33 l-4 32 -1 -37z"/>
<path d="M5570 5474 c-21 -24 -7 -49 28 -52 30 -3 32 -1 32 30 0 28 -4 33 -25
34 -13 1 -29 -4 -35 -12z m50 -25 c0 -12 -7 -19 -19 -19 -26 0 -36 17 -21 35
15 18 40 8 40 -16z"/>
<path d="M5713 5455 c0 -22 2 -30 4 -17 2 12 2 30 0 40 -3 9 -5 -1 -4 -23z"/>
<path d="M5752 5481 c-22 -14 -10 -56 17 -59 37 -6 52 26 25 52 -18 18 -24 19
-42 7z m36 -29 c3 -17 -2 -22 -17 -22 -14 0 -21 6 -21 18 0 38 33 41 38 4z"/>
<path d="M5838 5483 c-12 -3 -18 -14 -18 -34 0 -37 18 -38 22 -1 4 37 31 35
39 -3 l7 -30 1 31 c1 21 -5 34 -15 38 -9 3 -16 5 -17 5 -1 -1 -10 -3 -19 -6z"/>
<path d="M7240 5475 c-19 -23 -8 -50 22 -53 19 -2 28 2 33 18 12 39 -29 66
-55 35z m40 -10 c15 -18 5 -35 -21 -35 -12 0 -19 7 -19 18 0 33 20 42 40 17z"/>
<path d="M7375 5474 c-9 -9 -14 -23 -11 -31 3 -8 6 -17 6 -19 0 -2 4 -4 9 -4
4 0 6 11 4 24 -6 31 16 45 34 21 11 -16 13 -16 13 -3 0 9 -7 19 -16 22 -21 8
-20 8 -39 -10z"/>
<path d="M7451 5450 c1 -21 3 -27 6 -15 3 11 11 27 19 35 11 14 10 16 -6 16
-16 0 -20 -7 -19 -36z"/>
<path d="M7505 5479 c-4 -5 5 -21 19 -34 17 -16 26 -19 26 -10 0 7 -9 17 -20
20 -11 4 -18 10 -15 15 3 5 13 6 22 3 11 -4 14 -3 9 5 -9 15 -33 16 -41 1z"/>
<path d="M8102 5481 c-22 -14 -10 -56 17 -59 37 -6 52 26 25 52 -18 18 -24 19
-42 7z m36 -29 c3 -17 -2 -22 -17 -22 -14 0 -21 6 -21 18 0 38 33 41 38 4z"/>
<path d="M8194 5482 c-14 -9 -24 -62 -13 -62 5 0 9 11 9 24 0 13 6 26 13 29 6
2 10 7 7 10 -3 3 -10 3 -16 -1z"/>
<path d="M8237 5483 c-10 -10 -8 -33 3 -33 5 0 7 7 3 16 -5 13 -1 15 18 9 18
-5 21 -4 9 4 -18 13 -24 13 -33 4z"/>
<path d="M8691 5476 c-19 -23 -4 -56 25 -56 28 0 42 25 27 49 -14 22 -37 25
-52 7z m47 -24 c3 -16 -2 -22 -17 -22 -26 0 -36 17 -20 36 16 19 33 13 37 -14z"/>
<path d="M8870 5475 c-14 -17 -10 -47 8 -51 7 -1 8 0 2 3 -14 6 -13 40 2 49 6
4 17 -1 24 -11 8 -10 16 -16 19 -13 7 6 -22 38 -34 38 -5 0 -14 -7 -21 -15z"/>
<path d="M8940 5453 c0 -18 5 -33 10 -33 6 0 10 11 10 25 0 14 5 25 10 25 6 0
10 4 10 8 0 4 -9 8 -20 8 -16 0 -20 -7 -20 -33z"/>
<path d="M9000 5475 c-21 -25 -3 -55 34 -55 30 0 33 3 31 28 -3 38 -2 37 -29
40 -13 1 -29 -5 -36 -13z m48 -23 c3 -17 -2 -22 -17 -22 -14 0 -21 6 -21 18 0
38 33 41 38 4z"/>
<path d="M9145 5474 c-9 -9 -14 -23 -11 -31 3 -8 6 -17 6 -19 0 -2 13 -4 29
-4 34 0 48 32 24 55 -19 19 -28 19 -48 -1z m43 -22 c3 -17 -2 -22 -17 -22 -14
0 -21 6 -21 18 0 38 33 41 38 4z"/>
<path d="M9238 5482 c-19 -4 -26 -62 -8 -62 6 0 10 11 10 24 0 13 6 26 13 29
17 6 5 14 -15 9z"/>
<path d="M9281 5477 c-11 -14 -6 -27 10 -27 5 0 5 8 2 17 -5 13 -2 15 11 10
10 -4 15 -3 11 3 -8 14 -20 12 -34 -3z"/>
<path d="M2030 5450 c0 -16 4 -30 8 -30 5 0 7 14 4 30 -2 17 -6 30 -8 30 -2 0
-4 -13 -4 -30z"/>
<path d="M2110 5471 c0 -6 4 -13 10 -16 6 -3 7 1 4 9 -7 18 -14 21 -14 7z"/>
<path d="M2187 5473 c-9 -9 -9 -41 1 -46 4 -3 7 8 7 24 0 16 0 29 -1 29 0 0
-4 -3 -7 -7z"/>
<path d="M2233 5465 c0 -8 4 -15 9 -15 4 0 8 4 8 9 0 6 -4 12 -8 15 -5 3 -9
-1 -9 -9z"/>
<path d="M2271 5448 c2 -28 2 -29 6 -8 3 14 10 28 17 32 7 5 5 8 -6 8 -14 0
-18 -8 -17 -32z"/>
<path d="M2320 5471 c0 -6 4 -13 10 -16 6 -3 7 1 4 9 -7 18 -14 21 -14 7z"/>
<path d="M8000 5450 c0 -16 5 -30 10 -30 6 0 10 14 10 30 0 17 -4 30 -10 30
-5 0 -10 -13 -10 -30z"/>
<path d="M2151 5434 c0 -11 3 -14 6 -6 3 7 2 16 -1 19 -3 4 -6 -2 -5 -13z"/>
<path d="M2353 5435 c0 -8 4 -15 9 -15 4 0 8 7 8 15 0 8 -4 15 -8 15 -5 0 -9
-7 -9 -15z"/>
<path d="M8262 5438 c2 -8 -5 -12 -17 -10 -15 2 -17 1 -6 -7 15 -10 41 -4 41
9 0 5 -5 12 -10 15 -6 4 -9 1 -8 -7z"/>
<path d="M9313 5443 c4 -3 1 -13 -6 -22 -11 -14 -10 -14 5 -2 16 12 16 31 1
31 -4 0 -3 -3 0 -7z"/>
<path d="M1525 5430 c3 -5 8 -10 11 -10 2 0 4 5 4 10 0 6 -5 10 -11 10 -5 0
-7 -4 -4 -10z"/>
<path d="M1645 5430 c-3 -5 -1 -10 4 -10 6 0 11 5 11 10 0 6 -2 10 -4 10 -3 0
-8 -4 -11 -10z"/>
<path d="M1870 5430 c-9 -6 -10 -10 -3 -10 6 0 15 5 18 10 8 12 4 12 -15 0z"/>
<path d="M5300 5430 c-9 -6 -10 -10 -3 -10 6 0 15 5 18 10 8 12 4 12 -15 0z"/>
<path d="M7410 5430 c-9 -6 -10 -10 -3 -10 6 0 15 5 18 10 8 12 4 12 -15 0z"/>
<path d="M8905 5430 c-3 -5 -1 -10 4 -10 6 0 11 5 11 10 0 6 -2 10 -4 10 -3 0
-8 -4 -11 -10z"/>
<path d="M4450 4413 c-179 -30 -308 -158 -341 -339 -25 -136 42 -301 157 -384
23 -16 47 -30 53 -30 6 0 11 18 11 40 0 38 22 110 34 110 3 0 -1 -19 -9 -41
-16 -45 -21 -140 -5 -104 8 19 9 19 9 -2 1 -29 8 -32 83 -40 61 -6 62 -6 44
12 -18 19 -18 19 8 28 14 5 26 12 26 16 0 4 12 13 26 20 l26 12 -4 -46 c-2
-28 1 -45 8 -45 22 0 110 34 139 53 39 26 105 89 105 99 0 5 -15 18 -34 29
-20 12 -33 26 -30 33 3 9 -4 13 -23 13 -15 -1 -39 3 -53 7 l-25 7 1 -73 2 -73
-7 73 c-4 40 -13 78 -19 84 -22 22 -9 88 26 130 13 15 11 18 -12 24 -33 8 -60
-2 -53 -20 6 -15 -19 -26 -40 -19 -9 3 -8 9 4 21 15 15 13 17 -26 27 -24 5
-39 14 -34 18 4 5 13 23 19 40 l12 32 7 -27 c6 -23 13 -28 39 -28 17 0 41 7
53 15 18 12 22 13 26 1 3 -8 3 -24 0 -35 -3 -13 -1 -21 7 -21 6 0 14 9 17 21
3 11 11 18 17 16 16 -6 40 48 33 73 -3 13 0 20 10 20 9 0 13 6 9 15 -8 21 28
20 53 -1 11 -10 17 -24 14 -38 -5 -21 -5 -21 10 -1 13 16 16 17 17 4 0 -19 27
-21 34 -3 3 8 0 28 -6 45 -11 31 -12 31 -60 26 -55 -7 -80 9 -92 57 -3 14 -11
26 -16 26 -6 0 -10 8 -10 18 0 18 -45 47 -92 58 -18 4 -28 13 -28 24 0 25 -51
35 -120 23z m143 -247 c15 -12 12 -14 -32 -20 -49 -6 -81 -1 -81 14 0 8 31 16
75 18 11 1 28 -5 38 -12z m-123 -118 c0 -16 -3 -19 -11 -11 -6 6 -8 16 -5 22
11 17 16 13 16 -11z m-93 -170 c-2 -13 -4 -3 -4 22 0 25 2 35 4 23 2 -13 2
-33 0 -45z m263 -138 c0 -27 -3 -50 -7 -50 -5 0 -6 22 -5 50 5 65 12 65 12 0z
m-273 -37 c-3 -10 -5 -2 -5 17 0 19 2 27 5 18 2 -10 2 -26 0 -35z"/>
<path d="M1520 4311 c-8 -5 -28 -15 -44 -22 -40 -19 -69 -86 -61 -137 4 -20
10 -65 14 -100 4 -36 13 -67 21 -72 9 -6 13 -25 12 -57 -1 -26 4 -58 11 -71
16 -29 1 -92 -23 -92 -8 -1 -30 -9 -49 -19 l-35 -18 43 -31 c166 -120 398 -99
536 49 25 27 45 52 45 56 0 4 -16 19 -35 32 -45 30 -54 59 -27 82 33 26 36 60
9 120 -13 30 -28 64 -33 76 -19 47 -129 175 -162 188 -39 17 -201 28 -222 16z
m54 -70 l27 -28 -36 -22 c-25 -14 -35 -26 -31 -37 3 -8 1 -25 -6 -37 -37 -73
-37 -79 5 -75 31 3 32 4 29 46 l-3 43 43 -3 c55 -4 58 -18 21 -102 -21 -48
-40 -73 -70 -95 l-41 -29 -26 62 c-28 66 -26 97 11 138 20 22 13 54 -11 50
-15 -3 -17 1 -11 30 10 41 32 76 53 81 9 3 17 5 18 6 0 0 13 -12 28 -28z"/>
<path d="M1514 4009 c-18 -20 -18 -20 11 -14 29 7 29 7 10 -9 -19 -17 -19 -17
10 -11 40 9 70 35 53 47 -24 14 -65 8 -84 -13z"/>
<path d="M7033 4247 c-43 -63 -64 -126 -70 -210 -4 -68 -2 -93 17 -147 12 -35
31 -77 42 -92 l20 -29 28 40 c29 39 29 40 20 128 -5 48 -10 91 -10 96 0 4 11
7 25 7 19 0 25 -5 25 -21 0 -12 8 -23 18 -26 10 -2 22 -14 27 -26 6 -12 17
-22 25 -22 8 0 16 -10 18 -22 3 -23 -12 -31 -23 -13 -11 19 -25 10 -25 -15 0
-16 7 -28 18 -31 17 -6 34 -12 85 -33 15 -6 32 -22 37 -36 6 -17 17 -25 33
-25 13 0 34 -11 47 -25 13 -14 27 -25 31 -25 17 0 103 88 118 120 l15 35 6
-49 c4 -41 7 -47 18 -34 6 8 13 34 14 57 1 22 5 41 10 41 24 0 18 34 -13 66
-18 19 -28 34 -21 34 7 0 12 11 12 25 0 31 31 45 98 45 71 0 79 9 64 67 -15
55 -52 119 -52 91 0 -10 -7 -18 -16 -18 -9 0 -23 8 -30 18 -13 16 -13 16 -15
0 -1 -10 -3 -22 -4 -28 -1 -5 -3 -14 -4 -20 -2 -18 -23 -11 -28 10 -5 20 -6
20 -28 -4 -14 -16 -24 -42 -28 -79 -8 -60 -15 -87 -26 -87 -8 0 -36 68 -36 87
0 6 -4 15 -8 19 -4 4 -7 21 -7 39 0 17 -5 36 -12 43 -7 7 -8 12 -4 12 5 0 15
-8 22 -17 12 -17 13 -17 14 -1 0 9 -12 25 -27 36 -36 25 -122 52 -129 41 -3
-5 -18 -9 -33 -9 -32 0 -108 -54 -135 -95 -14 -21 -24 -26 -49 -23 -31 3 -32
5 -39 63 -10 80 -10 79 -35 42z m284 -147 c11 0 13 -4 5 -12 -8 -11 -9 -34 -3
-70 3 -20 71 -3 71 17 0 18 50 9 72 -13 17 -17 21 -37 19 -82 -1 -15 -4 -20
-9 -13 -4 6 -25 10 -49 8 -40 -3 -43 -2 -37 20 3 12 0 26 -6 30 -16 10 -25 -2
-12 -18 8 -10 4 -16 -19 -26 -17 -7 -28 -18 -26 -25 4 -9 -10 -30 -27 -39 -8
-4 -48 38 -62 65 -12 23 -12 27 3 32 20 8 44 -23 37 -46 -8 -26 5 -42 22 -27
19 15 18 58 -1 65 -12 5 -13 10 -4 20 12 15 3 54 -12 54 -6 0 -9 8 -7 18 1 9
-1 22 -4 28 -4 6 -4 21 -1 34 l6 24 15 -22 c8 -12 21 -22 29 -22z m-153 -99
c-8 -9 -22 12 -17 26 6 15 7 14 13 -3 4 -10 6 -21 4 -23z"/>
<path d="M2375 4160 c0 -52 3 -60 19 -60 12 0 16 5 12 16 -3 9 -6 36 -6 60 0
28 -4 44 -12 44 -9 0 -13 -19 -13 -60z"/>
<path d="M2515 4160 c0 -48 3 -60 15 -60 12 0 15 8 12 35 -3 28 -1 35 13 35
14 0 16 -7 13 -35 -3 -27 0 -35 12 -35 13 0 15 8 10 43 -5 36 -9 42 -28 40
-16 -2 -22 3 -22 17 0 11 -6 20 -12 20 -9 0 -13 -19 -13 -60z"/>
<path d="M2770 4210 c0 -5 7 -10 15 -10 8 0 15 5 15 10 0 6 -7 10 -15 10 -8 0
-15 -4 -15 -10z"/>
<path d="M2900 4160 c0 -51 3 -60 18 -60 15 0 17 6 14 35 -3 28 -1 35 13 35
15 0 17 -6 12 -35 -5 -29 -3 -35 11 -35 14 0 17 7 14 40 -4 38 -10 45 -39 41
-7 -1 -13 7 -13 19 0 11 -7 20 -15 20 -12 0 -15 -13 -15 -60z"/>
<path d="M3098 4160 c3 -48 7 -60 20 -60 14 0 16 9 14 60 -3 48 -7 60 -20 60
-14 0 -16 -9 -14 -60z"/>
<path d="M5720 4210 c0 -5 7 -10 15 -10 8 0 15 5 15 10 0 6 -7 10 -15 10 -8 0
-15 -4 -15 -10z"/>
<path d="M8220 4210 c0 -5 4 -10 9 -10 6 0 13 5 16 10 3 6 -1 10 -9 10 -9 0
-16 -4 -16 -10z"/>
<path d="M8500 4210 c0 -5 7 -10 15 -10 8 0 15 5 15 10 0 6 -7 10 -15 10 -8 0
-15 -4 -15 -10z"/>
<path d="M2195 4155 l0 -55 43 0 c35 0 42 3 42 20 0 23 -15 27 -24 5 -3 -8
-10 -15 -17 -15 -7 0 -10 18 -7 50 3 45 1 50 -17 50 -18 0 -20 -7 -20 -55z"/>
<path d="M2655 4155 c0 -31 4 -55 10 -55 6 0 9 18 7 43 l-3 42 28 -42 c15 -24
33 -41 38 -40 6 2 12 27 15 55 5 43 3 52 -10 52 -13 0 -16 -8 -13 -32 l4 -33
-20 25 c-11 14 -21 28 -21 33 0 4 -8 7 -17 7 -15 0 -18 -9 -18 -55z"/>
<path d="M5059 4159 c2 -29 -2 -56 -8 -62 -18 -18 -13 -29 9 -17 16 9 20 21
20 65 0 33 5 55 13 58 6 3 1 6 -13 6 -24 1 -25 -1 -21 -50z"/>
<path d="M5493 4155 c20 -57 33 -68 43 -37 15 45 17 46 26 14 12 -45 26 -37
47 26 17 49 17 52 1 52 -13 0 -16 -6 -13 -24 3 -13 1 -32 -5 -42 -8 -15 -11
-13 -17 14 -3 17 -4 36 0 42 4 6 -5 10 -20 10 -15 0 -24 -4 -20 -10 4 -6 3
-25 -1 -43 -7 -32 -7 -32 -16 -7 -5 14 -7 33 -4 42 3 13 -2 18 -19 18 l-23 0
21 -55z"/>
<path d="M7913 4155 c-20 -53 -20 -55 -2 -55 12 0 16 5 13 15 -4 10 0 15 15
15 12 0 21 -6 21 -15 0 -8 9 -15 19 -15 19 0 19 1 2 53 -24 71 -43 72 -68 2z
m37 5 c0 -11 -4 -20 -10 -20 -5 0 -10 9 -10 20 0 11 5 20 10 20 6 0 10 -9 10
-20z"/>
<path d="M8395 4155 c0 -44 3 -55 16 -55 12 0 15 7 11 25 -2 14 0 25 5 25 5 0
15 -11 21 -25 9 -20 19 -25 50 -25 l38 0 -5 40 c-3 23 -9 41 -13 40 -5 0 -12
0 -16 0 -4 0 -6 -16 -4 -35 5 -39 -7 -45 -26 -15 -8 13 -9 27 -4 38 15 28 3
42 -36 42 l-37 0 0 -55z m53 28 c-5 -25 -28 -28 -28 -4 0 12 6 21 16 21 9 0
14 -7 12 -17z"/>
<path d="M2306 4177 c-37 -27 -1 -90 40 -72 18 8 18 8 -1 13 -34 7 -42 22 -12
22 29 0 35 18 15 38 -15 15 -20 15 -42 -1z m34 -18 c0 -5 -7 -9 -15 -9 -15 0
-20 12 -9 23 8 8 24 -1 24 -14z"/>
<path d="M2440 4180 c-12 -8 -11 -10 8 -10 30 0 28 -16 -4 -24 -39 -10 -28
-41 17 -43 35 -2 35 -2 31 35 -6 47 -23 61 -52 42z m30 -50 c0 -5 -4 -10 -10
-10 -5 0 -10 5 -10 10 0 6 5 10 10 10 6 0 10 -4 10 -10z"/>
<path d="M2838 4179 c-21 -12 -24 -49 -6 -67 15 -15 48 -16 48 -1 0 5 -4 8 -9
5 -15 -9 -33 22 -26 44 5 17 9 19 21 9 8 -6 18 -9 21 -5 4 4 1 11 -7 16 -18
12 -21 12 -42 -1z"/>
<path d="M3016 4177 c-38 -27 2 -95 42 -71 24 16 28 55 6 71 -10 7 -21 13 -24
13 -3 0 -14 -6 -24 -13z m39 -47 c-4 -11 -11 -20 -16 -20 -10 0 -12 53 -2 64
11 11 25 -23 18 -44z"/>
<path d="M3163 4183 c-20 -8 -15 -41 7 -48 11 -3 20 -11 20 -16 0 -13 -14 -11
-28 3 -9 9 -12 8 -12 -5 0 -12 8 -17 25 -17 35 0 44 28 16 49 -12 9 -19 20
-15 24 4 4 14 1 22 -6 13 -10 14 -9 10 3 -5 16 -25 22 -45 13z"/>
<path d="M5121 4176 c-7 -8 -11 -27 -9 -43 2 -22 9 -29 31 -31 15 -2 27 1 27
7 0 6 -9 11 -20 11 -11 0 -20 5 -20 10 0 6 9 10 19 10 26 0 36 17 21 35 -16
19 -34 19 -49 1z m30 -19 c-13 -13 -26 -3 -16 12 3 6 11 8 17 5 6 -4 6 -10 -1
-17z"/>
<path d="M5199 4174 c-12 -14 -10 -19 10 -35 13 -11 21 -22 18 -26 -4 -3 -14
0 -23 8 -15 12 -17 12 -12 -1 2 -8 16 -16 30 -18 36 -4 43 22 13 46 -13 11
-22 22 -18 26 3 3 13 0 21 -7 13 -10 14 -9 10 3 -7 21 -32 24 -49 4z"/>
<path d="M5270 4158 c0 -46 10 -57 48 -56 32 1 33 2 30 41 -4 56 -28 62 -28 8
0 -51 -18 -54 -22 -4 -4 47 -28 57 -28 11z"/>
<path d="M5383 4183 c-20 -8 -15 -41 7 -48 11 -3 20 -11 20 -16 0 -14 -28 -11
-33 4 -3 7 -6 5 -6 -5 -1 -13 7 -18 24 -18 36 0 44 28 14 51 -13 10 -21 21
-17 25 4 4 14 1 23 -6 8 -7 15 -8 15 -2 0 8 -26 25 -33 21 -1 0 -8 -3 -14 -6z"/>
<path d="M5645 4174 c-32 -32 1 -87 41 -69 18 8 17 9 -3 12 -28 5 -30 23 -3
23 24 0 28 35 4 44 -21 8 -20 8 -39 -10z m31 -21 c-10 -10 -19 5 -10 18 6 11
8 11 12 0 2 -7 1 -15 -2 -18z"/>
<path d="M5779 4174 c-12 -14 -10 -19 9 -34 28 -23 28 -33 1 -25 -15 5 -19 4
-15 -4 10 -16 41 -14 55 3 10 12 7 18 -13 31 -14 10 -23 21 -20 27 3 5 12 4
22 -4 13 -11 14 -11 10 2 -7 21 -32 24 -49 4z"/>
<path d="M5859 4174 c-12 -14 -10 -19 10 -35 13 -11 21 -22 18 -26 -4 -3 -14
0 -23 8 -15 12 -17 12 -12 -1 6 -20 42 -24 57 -6 10 12 8 18 -13 31 -14 10
-23 21 -20 27 3 5 12 4 22 -4 13 -11 14 -11 10 2 -7 21 -32 24 -49 4z"/>
<path d="M8019 4185 c-1 0 -2 -19 -3 -42 -2 -34 1 -43 14 -43 12 0 15 8 12 35
-3 28 -1 35 13 35 14 0 16 -7 13 -35 -3 -27 0 -35 12 -35 13 0 15 8 11 43 -6
40 -8 42 -38 42 -18 0 -33 0 -34 0z"/>
<path d="M8140 4181 c-21 -5 -25 -12 -25 -44 0 -27 4 -37 15 -37 12 0 15 8 12
35 -3 28 -1 35 13 35 14 0 16 -7 13 -35 -3 -28 -1 -35 14 -35 14 0 16 6 12 33
-11 62 -8 60 -54 48z"/>
<path d="M8225 4184 c-16 -6 -6 -84 11 -84 10 0 14 12 14 39 0 40 -6 51 -25
45z"/>
<path d="M8281 4176 c-7 -8 -11 -27 -9 -43 2 -22 9 -29 31 -31 15 -2 27 1 27
7 0 6 -9 11 -20 11 -11 0 -20 5 -20 10 0 6 9 10 19 10 26 0 36 17 21 35 -16
19 -34 19 -49 1z m30 -19 c-13 -13 -26 -3 -16 12 3 6 11 8 17 5 6 -4 6 -10 -1
-17z"/>
<path d="M8566 4177 c-12 -9 -17 -23 -14 -42 2 -24 8 -31 31 -33 31 -4 37 13
7 21 -11 3 -20 14 -20 24 0 27 11 35 28 20 12 -10 14 -9 11 2 -7 21 -22 23
-43 8z"/>
<path d="M8641 4176 c-7 -8 -11 -27 -9 -43 2 -22 9 -29 31 -31 15 -2 27 1 27
7 0 6 -9 11 -20 11 -11 0 -20 5 -20 10 0 6 11 10 25 10 27 0 33 18 13 38 -16
16 -33 15 -47 -2z m30 -19 c-13 -13 -26 -3 -16 12 3 6 11 8 17 5 6 -4 6 -10
-1 -17z"/>
<path d="M2775 4140 c-1 -30 3 -40 15 -40 12 0 15 9 12 40 -5 52 -27 52 -27 0z"/>
<path d="M5722 4140 c1 -29 6 -40 17 -40 13 0 16 8 13 40 -3 26 -9 40 -18 40
-10 0 -13 -12 -12 -40z"/>
<path d="M1255 3973 c2 -40 11 -84 20 -100 l16 -28 -7 35 c-4 19 -13 64 -20
100 l-13 65 4 -72z"/>
<path d="M4833 4023 c-13 -2 -23 -8 -23 -13 0 -5 12 -7 26 -4 20 4 27 0 31
-16 8 -31 30 -24 31 10 1 31 -7 34 -65 23z"/>
<path d="M5587 3984 c-10 -11 -9 -72 2 -79 5 -3 11 7 13 22 4 37 21 36 30 -2
6 -29 6 -29 5 5 -1 24 -7 35 -17 35 -8 0 -17 6 -20 13 -3 7 -9 10 -13 6z"/>
<path d="M2197 3972 c6 -4 13 -23 16 -42 l4 -35 1 37 c1 20 8 39 15 41 6 3 -1
6 -18 6 -17 0 -25 -3 -18 -7z"/>
<path d="M2501 3938 c1 -39 2 -40 8 -13 l7 30 11 -30 10 -30 14 29 14 30 6
-30 c6 -26 7 -24 8 14 1 46 -15 57 -25 17 -3 -14 -10 -25 -15 -25 -5 0 -11 11
-15 25 -10 40 -24 29 -23 -17z"/>
<path d="M2603 3940 c0 -25 2 -35 4 -22 2 12 2 32 0 45 -2 12 -4 2 -4 -23z"/>
<path d="M5051 3938 c1 -24 4 -33 6 -21 2 12 12 24 21 26 15 4 15 5 0 6 -10 0
-18 5 -18 10 0 5 8 12 18 14 13 4 11 5 -5 6 -21 1 -23 -3 -22 -41z"/>
<path d="M5232 3944 c4 -49 23 -55 22 -7 -1 20 -7 39 -13 41 -9 3 -11 -7 -9
-34z"/>
<path d="M5306 3953 c13 -54 22 -61 34 -28 l12 30 13 -30 13 -30 11 28 c15 39
13 69 -3 32 l-13 -30 -6 28 c-4 15 -11 27 -15 27 -5 0 -13 -12 -19 -27 -10
-25 -11 -26 -12 -6 -1 12 -6 25 -11 28 -7 4 -8 -3 -4 -22z"/>
<path d="M5542 3944 c4 -49 23 -55 22 -7 -1 20 -7 39 -13 41 -9 3 -11 -7 -9
-34z"/>
<path d="M5717 3972 c6 -4 13 -23 16 -42 l4 -35 1 37 c1 20 8 39 15 41 6 3 -1
6 -18 6 -17 0 -25 -3 -18 -7z"/>
<path d="M5782 3960 c10 -15 10 -22 0 -32 -20 -20 -14 -33 7 -14 17 16 19 16
25 0 4 -9 9 -14 13 -11 3 4 0 13 -6 21 -9 11 -10 20 -1 35 6 12 7 21 1 21 -5
0 -12 -6 -15 -12 -5 -10 -7 -10 -12 0 -3 6 -10 12 -15 12 -5 0 -4 -9 3 -20z"/>
<path d="M7911 3944 c-7 -19 -10 -38 -7 -41 3 -4 6 -1 6 5 0 16 33 15 48 0 16
-16 15 -8 -3 36 -8 20 -19 36 -23 36 -4 0 -14 -16 -21 -36z m29 1 c0 -8 -4
-15 -10 -15 -5 0 -7 7 -4 15 4 8 8 15 10 15 2 0 4 -7 4 -15z"/>
<path d="M8117 3974 c-9 -9 9 -68 22 -72 10 -3 10 0 0 16 -10 16 -10 24 -1 35
10 12 10 16 -2 20 -8 3 -16 4 -19 1z"/>
<path d="M8328 3945 c6 -50 19 -52 24 -5 3 31 0 40 -12 40 -12 0 -15 -8 -12
-35z"/>
<path d="M8390 3959 c9 -15 8 -24 -1 -35 -6 -8 -9 -17 -6 -21 4 -3 9 2 13 11
6 16 8 16 26 -1 19 -17 19 -17 7 9 -9 22 -9 31 1 43 7 9 8 15 2 15 -6 0 -13
-6 -16 -12 -5 -10 -7 -10 -12 0 -3 6 -10 12 -15 12 -6 0 -5 -9 1 -21z"/>
<path d="M2261 3931 c2 -30 3 -32 6 -8 2 15 9 27 14 27 5 0 9 4 9 8 0 5 -7 9
-15 9 -11 0 -15 -10 -14 -36z"/>
<path d="M2310 3955 c-26 -31 18 -71 47 -43 12 12 13 20 4 37 -14 25 -34 27
-51 6z m36 -30 c-5 -14 -9 -15 -21 -5 -12 10 -13 16 -4 27 15 18 34 1 25 -22z"/>
<path d="M5123 3963 c-18 -7 -16 -52 3 -60 23 -9 51 23 38 44 -12 19 -23 24
-41 16z m37 -28 c0 -19 -20 -29 -32 -17 -15 15 -2 43 17 36 8 -3 15 -12 15
-19z"/>
<path d="M5198 3962 c-19 -4 -26 -52 -8 -52 6 0 10 9 10 19 0 11 6 21 13 24
17 6 5 14 -15 9z"/>
<path d="M5426 3955 c-12 -12 -13 -21 -6 -36 13 -23 33 -25 51 -3 9 11 10 20
3 32 -15 23 -29 25 -48 7z m37 -31 c-3 -8 -9 -14 -13 -14 -14 0 -22 20 -16 37
5 12 9 13 21 3 7 -6 11 -18 8 -26z"/>
<path d="M5508 3962 c-12 -2 -18 -13 -18 -33 0 -18 4 -28 10 -24 6 3 10 15 10
25 0 10 6 20 13 23 17 6 5 14 -15 9z"/>
<path d="M7983 3940 c2 -31 5 -35 30 -36 25 -1 27 2 26 35 -1 36 -1 36 -8 6
-3 -17 -13 -30 -21 -30 -8 0 -18 13 -22 30 -6 29 -6 29 -5 -5z"/>
<path d="M8061 3956 c-10 -11 -8 -16 8 -21 12 -3 21 -11 21 -17 0 -6 -8 -7
-17 -3 -15 5 -16 4 -5 -6 10 -11 14 -11 25 0 10 10 9 15 -5 25 -23 17 -23 27
-1 19 11 -4 14 -3 9 5 -10 16 -21 15 -35 -2z"/>
<path d="M8208 3963 c-13 -3 -18 -14 -17 -36 1 -22 3 -25 6 -10 2 12 11 27 18
33 16 13 18 10 29 -35 2 -11 4 -5 3 14 -2 36 -9 42 -39 34z"/>
<path d="M2386 3945 c4 -11 7 -33 7 -49 l0 -29 18 34 c20 37 27 79 8 46 -10
-18 -11 -18 -26 0 -14 17 -14 17 -7 -2z"/>
<path d="M8160 3929 c0 -17 4 -28 10 -24 6 3 10 17 10 31 0 13 -4 24 -10 24
-5 0 -10 -14 -10 -31z"/>
<path d="M4803 3914 c-22 -9 7 -52 38 -56 34 -5 37 5 8 26 -12 8 -18 19 -14
25 6 11 -10 13 -32 5z"/>
<path d="M2445 3900 c3 -5 8 -10 11 -10 2 0 4 5 4 10 0 6 -5 10 -11 10 -5 0
-7 -4 -4 -10z"/>
<path d="M4850 3899 c0 -5 5 -7 10 -4 6 3 10 8 10 11 0 2 -4 4 -10 4 -5 0 -10
-5 -10 -11z"/>
<path d="M8265 3900 c3 -5 8 -10 11 -10 2 0 4 5 4 10 0 6 -5 10 -11 10 -5 0
-7 -4 -4 -10z"/>
<path d="M7610 3840 c0 -5 5 -10 10 -10 6 0 10 5 10 10 0 6 -4 10 -10 10 -5 0
-10 -4 -10 -10z"/>
<path d="M7571 3765 c-19 -13 -47 -27 -63 -30 -23 -6 -28 -12 -28 -36 0 -17
-3 -28 -7 -26 -5 3 -8 -6 -8 -19 0 -22 3 -24 25 -19 40 10 70 34 70 56 0 16 4
19 20 14 11 -3 20 -2 20 3 0 6 -5 12 -11 14 -8 3 -7 9 3 19 8 8 15 22 15 32 0
9 -1 17 -1 17 -1 -1 -16 -12 -35 -25z"/>
<path d="M7650 3774 c0 -8 5 -12 10 -9 6 4 8 11 5 16 -9 14 -15 11 -15 -7z"/>
<path d="M7238 3773 c8 -3 23 -19 34 -37 11 -17 18 -23 14 -13 -8 26 4 21 36
-15 l28 -33 -6 28 c-7 32 10 37 26 6 14 -24 24 -20 14 6 -9 21 -100 65 -134
64 -14 0 -19 -3 -12 -6z"/>
<path d="M7390 3724 c0 -17 17 -36 24 -26 3 5 -1 15 -9 22 -8 7 -15 9 -15 4z"/>
<path d="M7430 3710 c0 -5 6 -10 14 -10 8 0 18 5 21 10 3 6 -3 10 -14 10 -12
0 -21 -4 -21 -10z"/>
<path d="M6032 3635 c0 -16 2 -22 5 -12 2 9 2 23 0 30 -3 6 -5 -1 -5 -18z"/>
<path d="M5941 3624 c0 -11 3 -14 6 -6 3 7 2 16 -1 19 -3 4 -6 -2 -5 -13z"/>
<path d="M5682 3400 c0 -14 2 -19 5 -12 2 6 2 18 0 25 -3 6 -5 1 -5 -13z"/>
<path d="M4465 2552 c-134 -14 -260 -100 -319 -217 -26 -53 -49 -136 -40 -145
3 -3 33 -4 67 -2 51 3 66 7 85 28 12 14 22 36 22 49 0 58 101 189 141 183 33
-5 37 -28 4 -28 -30 0 -85 -53 -116 -113 -23 -45 -21 -56 6 -27 10 11 23 20
28 20 5 0 33 16 62 35 48 32 57 34 106 28 30 -3 59 -10 66 -15 7 -6 16 -4 25
5 11 12 16 8 36 -27 13 -22 26 -52 28 -66 2 -14 9 -47 14 -74 6 -27 8 -51 5
-54 -9 -9 -14 3 -19 43 -10 72 -48 165 -68 165 -16 0 -7 -52 12 -78 25 -33 48
-117 43 -152 -2 -14 -14 -45 -28 -70 -38 -73 -29 -109 33 -136 47 -19 49 -19
68 19 9 17 18 33 19 35 1 1 15 -4 31 -13 34 -17 48 -19 39 -5 -3 6 -1 10 6 10
7 0 3 10 -9 23 -12 13 -22 27 -22 32 0 5 -8 17 -17 27 -10 12 -17 38 -18 71
-1 28 -10 74 -19 100 -9 26 -16 56 -16 66 0 10 -8 29 -19 42 -23 30 -53 89
-46 89 4 0 -2 12 -13 28 -11 15 -19 32 -18 37 0 6 -15 11 -34 13 -28 3 -33 1
-22 -9 6 -7 12 -20 12 -28 0 -13 -2 -13 -12 1 -16 19 -58 30 -58 15 0 -8 -4
-7 -12 1 -7 7 -29 12 -50 12 -35 0 -38 2 -29 18 12 22 82 30 183 22 17 -1 45
-28 41 -39 -3 -10 46 -36 54 -28 4 5 1 17 -6 28 -7 12 -10 23 -7 26 10 10 -28
32 -56 33 -15 0 -30 5 -33 10 -4 7 -11 8 -18 1 -8 -6 -24 -5 -47 2 -19 7 -48
11 -65 9z m221 -557 c-5 -16 -11 -24 -14 -17 -3 10 -7 10 -18 1 -10 -8 -8 2 6
32 11 24 20 58 21 74 2 23 4 19 8 -15 4 -25 2 -58 -3 -75z"/>
<path d="M7264 2454 c-61 -32 -85 -57 -109 -111 -17 -40 -17 -46 -3 -90 9 -27
12 -49 7 -51 -5 -2 -9 -10 -9 -18 0 -9 4 -12 10 -9 6 3 7 -1 4 -10 -4 -10 1
-22 12 -30 15 -11 16 -14 4 -15 -12 0 -12 -2 -2 -9 19 -11 44 -132 31 -147 -5
-7 -6 -14 -2 -16 4 -3 2 -3 -6 -1 -11 3 -12 -5 -7 -38 7 -44 -7 -47 -18 -3 -5
20 -1 33 15 50 l22 24 -21 0 c-12 0 -30 -13 -42 -30 -12 -16 -27 -30 -35 -30
-7 0 -23 -8 -34 -18 l-22 -17 33 -32 c78 -75 213 -115 321 -96 34 6 75 16 91
22 28 11 28 11 10 39 -17 27 -49 54 -69 59 -47 11 -49 9 -56 -46 -9 -68 -18
-77 -66 -65 -35 8 -38 12 -44 54 -8 53 -5 58 18 38 23 -19 53 -12 53 13 0 28
18 59 34 59 17 0 62 45 92 92 24 38 32 74 14 63 -5 -3 -10 0 -10 9 0 8 -3 21
-6 29 -3 10 3 17 20 21 36 9 39 35 22 150 -13 88 -18 102 -47 132 -57 58 -129
68 -205 28z m203 -92 c16 -12 24 -32 29 -67 3 -29 2 -45 -3 -38 -5 6 -21 16
-35 22 -24 9 -30 7 -48 -17 -24 -30 -21 -73 6 -103 13 -15 13 -17 -6 -22 -11
-3 -23 -1 -26 4 -3 5 -14 9 -25 9 -19 0 -19 1 -5 22 19 27 20 77 2 101 -9 12
-27 17 -60 17 l-46 0 16 26 c38 57 153 84 201 46z m-237 -159 c0 -12 12 -31
26 -42 30 -24 24 -41 -14 -38 -26 2 -27 4 -30 67 -2 46 1 61 8 50 5 -8 10 -25
10 -37z m190 -123 c0 -5 -7 -10 -15 -10 -8 0 -15 -4 -15 -10 0 -13 6 -13 32 1
29 16 31 6 8 -39 -14 -27 -26 -39 -36 -35 -12 4 -12 8 3 19 16 12 16 15 3 24
-8 5 -24 10 -35 10 -11 0 -27 5 -35 11 -12 9 -11 10 8 6 12 -3 22 -1 22 4 0 5
-9 9 -20 9 -11 0 -20 5 -20 10 0 6 23 10 50 10 28 0 50 -4 50 -10z m-110 -20
c0 -5 -2 -10 -4 -10 -3 0 -8 5 -11 10 -3 6 -1 10 4 10 6 0 11 -4 11 -10z"/>
<path d="M1610 2443 c-8 -3 -28 -17 -43 -29 -16 -13 -34 -24 -40 -24 -7 0 -18
-9 -25 -20 -10 -16 -10 -20 0 -20 10 0 10 -2 0 -8 -19 -12 -32 -70 -22 -95 4
-12 12 -31 16 -42 6 -17 8 -14 13 15 3 19 11 35 16 35 6 0 15 3 20 6 21 13 64
19 70 9 3 -5 12 -7 21 -3 17 6 68 -43 59 -58 -4 -5 -25 -9 -48 -9 l-42 0 -2
-47 c-1 -25 -7 -51 -13 -57 -6 -6 -4 -16 7 -28 15 -17 14 -18 -13 -19 l-29 -1
35 -13 c28 -11 30 -14 13 -14 -28 -1 -30 -17 -3 -26 26 -8 26 -35 0 -35 -18 0
-16 -6 19 -54 22 -30 55 -70 73 -89 34 -35 82 -55 93 -37 3 5 23 14 44 20 38
10 131 82 131 101 0 6 -5 7 -11 4 -6 -4 -39 -4 -73 0 -54 5 -65 10 -75 31 -21
47 -7 128 30 169 27 30 36 152 15 193 -12 24 -13 32 -4 32 7 0 -2 13 -20 29
-20 19 -33 40 -33 58 -2 24 -2 25 -6 5 -3 -13 -8 -22 -11 -20 -60 33 -135 51
-162 41z m-70 -67 c0 -3 -4 -8 -10 -11 -5 -3 -10 -1 -10 4 0 6 5 11 10 11 6 0
10 -2 10 -4z m10 -36 c0 -5 -4 -10 -10 -10 -5 0 -10 5 -10 10 0 6 5 10 10 10
6 0 10 -4 10 -10z m20 -50 c0 -5 -5 -10 -11 -10 -5 0 -7 5 -4 10 3 6 8 10 11
10 2 0 4 -4 4 -10z m128 -158 c10 -7 9 -16 -5 -42 l-17 -34 -12 34 c-7 19 -13
38 -13 43 -1 9 31 9 47 -1z"/>
<path d="M2402 2303 c3 -54 5 -58 29 -61 31 -4 52 18 47 50 -2 15 -11 24 -25
26 -15 2 -23 10 -23 23 0 10 -7 19 -15 19 -13 0 -15 -11 -13 -57z m52 -8 c6
-18 -2 -45 -15 -45 -5 0 -9 14 -9 30 0 32 14 40 24 15z"/>
<path d="M5864 2344 c3 -9 6 -36 6 -60 0 -40 2 -44 24 -44 48 0 65 72 19 78
-15 2 -23 10 -23 23 0 11 -7 19 -16 19 -11 0 -14 -5 -10 -16z m51 -64 c0 -13
-6 -25 -12 -27 -9 -3 -13 6 -13 27 0 21 4 30 13 28 6 -3 12 -15 12 -28z"/>
<path d="M6045 2300 c0 -47 3 -60 15 -60 12 0 14 12 12 60 -5 81 -27 81 -27 0z"/>
<path d="M6095 2300 c0 -47 3 -60 15 -60 12 0 14 12 12 60 -5 81 -27 81 -27 0z"/>
<path d="M8175 2300 c0 -48 3 -60 15 -60 12 0 15 8 12 35 -3 28 -1 35 13 35
14 0 16 -7 13 -35 -3 -27 0 -35 12 -35 12 0 15 9 12 40 -4 34 -7 40 -28 40
-17 0 -24 6 -24 20 0 11 -6 20 -12 20 -9 0 -13 -19 -13 -60z"/>
<path d="M9100 2350 c0 -5 5 -10 10 -10 6 0 10 5 10 10 0 6 -4 10 -10 10 -5 0
-10 -4 -10 -10z"/>
<path d="M2195 2295 c0 -49 2 -55 21 -55 17 0 20 5 16 25 -2 14 0 25 7 25 6 0
13 -11 17 -25 4 -16 13 -25 25 -25 17 0 18 3 7 23 -7 12 -13 36 -13 52 0 28
-3 30 -40 33 l-40 3 0 -56z m60 25 c0 -7 -6 -15 -12 -17 -8 -3 -13 4 -13 17 0
13 5 20 13 18 6 -3 12 -11 12 -18z"/>
<path d="M2748 2338 c5 -7 10 -26 10 -43 0 -16 -5 -36 -10 -42 -8 -10 -1 -13
30 -13 44 0 68 20 57 47 -5 10 -7 28 -6 41 2 20 -2 22 -45 22 -36 0 -44 -3
-36 -12z m60 -15 c-5 -25 -28 -28 -28 -4 0 12 6 21 16 21 9 0 14 -7 12 -17z
m2 -53 c0 -11 -7 -20 -15 -20 -8 0 -15 9 -15 20 0 11 7 20 15 20 8 0 15 -9 15
-20z"/>
<path d="M5075 2338 c-35 -96 -35 -98 -15 -98 13 0 18 5 14 15 -4 11 0 15 16
15 16 0 20 -4 16 -15 -4 -12 4 -15 40 -15 45 0 45 0 42 32 -2 19 2 33 10 35 8
3 12 -7 12 -31 0 -25 4 -36 15 -36 10 0 15 11 15 35 0 19 5 35 10 35 6 0 10
-16 10 -35 0 -27 4 -35 18 -35 16 0 18 6 13 38 l-6 37 -66 3 -65 3 4 -37 c6
-53 -19 -40 -36 19 -13 45 -37 63 -47 35z m25 -44 c0 -8 -4 -14 -10 -14 -5 0
-10 9 -10 21 0 11 5 17 10 14 6 -3 10 -13 10 -21z"/>
<path d="M5442 2338 c-7 -7 -12 -26 -12 -43 0 -38 16 -55 52 -55 19 0 28 5 28
16 0 14 -2 14 -16 3 -29 -24 -57 35 -34 71 8 12 13 13 30 2 17 -10 20 -10 20
3 0 18 -50 21 -68 3z"/>
<path d="M7706 2325 c8 -37 14 -45 14 -19 0 10 -5 26 -10 34 -8 11 -9 7 -4
-15z"/>
<path d="M7913 2295 c-20 -53 -20 -55 -2 -55 12 0 16 5 13 15 -4 11 0 15 16
15 16 0 20 -4 16 -15 -4 -11 1 -15 19 -15 l24 0 -18 53 c-24 71 -43 72 -68 2z
m33 -12 c-11 -11 -19 6 -11 24 8 17 8 17 12 0 3 -10 2 -21 -1 -24z"/>
<path d="M8124 2337 c-5 -9 -8 -35 -6 -57 3 -31 8 -40 23 -40 10 0 19 5 19 10
0 6 -4 10 -10 10 -5 0 -10 11 -10 25 0 14 6 25 13 25 8 0 9 3 1 8 -6 4 -13 14
-16 22 -4 12 -6 12 -14 -3z"/>
<path d="M8607 2343 c-14 -14 -6 -38 21 -59 25 -21 25 -23 8 -30 -11 -4 -21
-2 -26 6 -5 9 -9 9 -14 1 -9 -14 15 -24 46 -19 34 5 36 42 4 64 -29 18 -34 34
-11 34 8 0 15 -5 15 -11 0 -5 5 -7 10 -4 6 3 10 10 10 16 0 10 -53 13 -63 2z"/>
<path d="M8778 2316 c2 -18 -1 -43 -7 -55 -10 -18 -9 -21 6 -21 15 0 18 8 16
48 l-3 47 15 -30 c8 -16 14 -35 15 -42 1 -30 20 -19 32 18 12 41 12 42 19 15
4 -15 5 -34 2 -42 -3 -9 2 -14 15 -14 18 0 19 3 10 46 -8 37 -7 48 3 55 10 6
6 9 -14 9 -18 0 -30 -6 -33 -17 -15 -46 -17 -48 -27 -15 -7 23 -16 32 -31 32
-19 0 -21 -5 -18 -34z"/>
<path d="M2654 2326 c-3 -8 -4 -29 -2 -48 2 -25 8 -34 26 -36 12 -2 22 1 22 7
0 6 -4 11 -10 11 -5 0 -10 11 -10 25 0 14 5 25 11 25 6 0 4 7 -5 15 -18 19
-25 19 -32 1z"/>
<path d="M2332 2323 c-42 -15 -32 -83 13 -83 30 0 50 32 36 59 -12 21 -30 30
-49 24z m26 -44 c-1 -13 -7 -23 -13 -22 -13 3 -18 30 -11 50 10 24 29 1 24
-28z"/>
<path d="M2506 2314 c-19 -18 -21 -45 -4 -62 14 -14 44 -16 52 -3 3 5 -2 8
-11 7 -9 0 -18 5 -20 12 -3 7 4 12 16 12 25 0 29 35 5 44 -21 8 -20 8 -38 -10z
m34 -14 c0 -5 -4 -10 -10 -10 -5 0 -10 5 -10 10 0 6 5 10 10 10 6 0 10 -4 10
-10z"/>
<path d="M2952 2323 c-42 -15 -32 -83 13 -83 30 0 50 32 36 59 -12 21 -30 30
-49 24z m28 -44 c0 -20 -4 -29 -12 -27 -15 5 -22 33 -14 54 9 24 26 6 26 -27z"/>
<path d="M3172 2323 c-22 -8 -34 -41 -22 -63 11 -20 60 -29 60 -10 0 6 -3 9
-7 9 -19 -3 -33 2 -33 11 0 6 11 10 25 10 15 0 25 6 25 15 0 17 -29 34 -48 28z
m18 -23 c0 -5 -4 -10 -10 -10 -5 0 -10 5 -10 10 0 6 5 10 10 10 6 0 10 -4 10
-10z"/>
<path d="M5982 2323 c-22 -9 -34 -41 -22 -63 11 -20 60 -29 60 -11 0 5 -7 8
-16 7 -9 0 -19 5 -21 12 -3 7 4 12 16 12 27 0 34 15 15 34 -8 9 -16 16 -17 15
-1 0 -8 -3 -15 -6z m18 -23 c0 -5 -4 -10 -10 -10 -5 0 -10 5 -10 10 0 6 5 10
10 10 6 0 10 -4 10 -10z"/>
<path d="M8292 2314 c-25 -17 -27 -33 -9 -59 10 -13 21 -16 40 -11 22 5 27 12
27 36 0 38 -28 55 -58 34z m36 -31 c-4 -39 -28 -42 -28 -4 0 21 5 31 16 31 11
0 14 -8 12 -27z"/>
<path d="M8941 2314 c-26 -18 -25 -51 2 -68 23 -15 51 3 55 37 4 35 -26 52
-57 31z m34 -34 c0 -13 -6 -25 -12 -27 -9 -3 -13 6 -13 27 0 21 4 30 13 28 6
-3 12 -15 12 -28z"/>
<path d="M2585 2280 c0 -30 4 -40 16 -40 12 0 14 7 11 30 -3 23 0 30 12 30 9
0 16 5 16 10 0 6 -12 10 -28 10 -25 0 -27 -3 -27 -40z"/>
<path d="M2855 2280 c0 -35 3 -40 23 -40 20 0 21 2 10 21 -11 17 -10 22 5 33
24 19 21 26 -10 26 -26 0 -28 -3 -28 -40z"/>
<path d="M3027 2280 c18 -46 26 -49 41 -17 l11 22 7 -23 c9 -31 25 -23 40 21
11 32 11 37 -2 37 -8 0 -13 -4 -10 -9 4 -5 3 -17 -1 -28 -6 -16 -8 -15 -13 6
-8 35 -28 37 -36 5 -6 -22 -8 -24 -16 -10 -5 9 -6 21 -3 26 3 6 -3 10 -14 10
-19 0 -19 -2 -4 -40z"/>
<path d="M3235 2280 c0 -36 2 -40 25 -39 14 0 19 3 13 6 -19 7 -16 53 2 53 8
0 15 5 15 10 0 6 -12 10 -27 10 -26 0 -28 -3 -28 -40z"/>
<path d="M5320 2275 c17 -39 18 -47 5 -51 -8 -4 -12 -10 -9 -16 9 -15 32 10
45 50 6 20 16 43 22 50 7 8 5 12 -7 12 -9 0 -16 -8 -16 -19 0 -25 -20 -38 -21
-14 -1 10 -1 21 0 26 0 4 -8 7 -19 7 -19 0 -19 0 0 -45z"/>
<path d="M5548 2313 c23 -5 31 -23 9 -23 -19 0 -36 -20 -30 -36 3 -8 19 -14
39 -14 29 0 34 3 34 24 0 43 -10 56 -44 55 -23 -1 -25 -3 -8 -6z m22 -49 c0
-8 -4 -12 -10 -9 -5 3 -10 10 -10 16 0 5 5 9 10 9 6 0 10 -7 10 -16z"/>
<path d="M5615 2280 c0 -32 4 -40 18 -40 15 0 18 6 15 32 -2 19 2 33 10 35 8
3 12 -7 12 -31 0 -25 4 -36 15 -36 10 0 15 11 15 35 0 19 5 35 10 35 6 0 10
-16 10 -35 0 -25 4 -35 16 -35 12 0 14 9 12 38 l-3 37 -65 3 -65 3 0 -41z"/>
<path d="M5768 2262 c3 -42 8 -59 18 -59 8 0 14 8 14 16 0 9 10 21 23 26 16 7
22 18 22 40 0 28 -3 30 -40 33 l-40 3 3 -59z m52 18 c0 -16 -4 -30 -10 -30 -5
0 -10 14 -10 30 0 17 5 30 10 30 6 0 10 -13 10 -30z"/>
<path d="M8014 2280 c0 -30 4 -40 16 -40 12 0 15 8 12 35 -3 28 -1 35 13 35
14 0 16 -7 13 -35 -3 -27 0 -35 12 -35 12 0 15 9 12 40 -4 39 -5 40 -41 40
-36 0 -37 -1 -37 -40z"/>
<path d="M8375 2280 c0 -29 4 -40 15 -40 12 0 15 8 12 35 -3 28 -1 35 13 35
14 0 16 -7 13 -35 -3 -27 0 -35 12 -35 12 0 15 9 12 40 -4 39 -5 40 -41 40
-35 0 -36 -1 -36 -40z"/>
<path d="M8470 2315 c0 -2 8 -24 17 -47 12 -30 13 -43 5 -46 -7 -2 -12 -8 -12
-13 0 -6 7 -6 18 0 24 13 56 111 36 111 -8 0 -13 -3 -13 -7 1 -5 1 -16 0 -26
-1 -24 -21 -11 -21 14 0 10 -7 19 -15 19 -8 0 -15 -2 -15 -5z"/>
<path d="M9025 2280 c-1 -37 1 -40 25 -39 14 0 19 3 13 6 -19 7 -16 53 2 53 8
0 15 5 15 10 0 6 -12 10 -27 10 -26 0 -28 -3 -28 -40z"/>
<path d="M9095 2280 c0 -29 4 -40 15 -40 12 0 15 9 12 40 -2 22 -9 40 -16 40
-6 0 -11 -17 -11 -40z"/>
<path d="M9145 2280 c0 -31 4 -40 17 -40 12 0 16 8 15 32 -1 17 3 33 11 35 8
3 12 -7 12 -31 0 -26 4 -36 16 -36 12 0 14 9 12 38 -3 35 -5 37 -43 40 l-40 3
0 -41z"/>
<path d="M4429 2257 c-63 -30 -76 -42 -83 -79 -9 -47 -21 -55 -102 -74 -89
-21 -102 -14 -74 39 l21 38 -43 -24 c-41 -23 -43 -26 -39 -63 4 -45 20 -81 30
-67 3 6 17 13 31 17 14 4 35 12 47 18 17 8 28 7 47 -5 14 -9 32 -14 41 -11 15
6 45 -11 45 -27 0 -5 -10 -13 -21 -20 -20 -10 -21 -9 -16 10 3 11 2 21 -1 21
-12 -1 -49 -34 -60 -55 -11 -18 -11 -18 -12 8 0 25 -2 27 -20 17 -14 -8 -26
-8 -41 1 -41 21 -45 -6 -9 -65 32 -52 35 -54 64 -48 17 3 40 6 51 5 11 -1 56
-4 100 -6 79 -5 80 -5 85 -33 l6 -29 15 30 c11 24 20 29 42 27 26 -3 35 7 20
22 -5 4 -8 11 -9 14 -3 23 -19 42 -35 42 -11 0 -38 19 -59 43 -31 33 -40 49
-39 77 1 31 2 32 8 10 4 -14 16 -26 26 -28 15 -2 17 -1 6 6 -7 6 -11 14 -7 20
3 6 1 12 -6 14 -8 3 -7 14 5 38 9 18 17 44 17 57 0 12 5 23 10 23 6 0 10 -7
10 -15 0 -24 25 -28 61 -10 l33 17 -24 13 -24 13 24 4 c23 4 24 5 5 12 -11 4
-28 12 -37 17 -25 13 -37 11 -89 -14z"/>
<path d="M7605 2271 c-3 -5 -1 -12 5 -16 5 -3 10 1 10 9 0 18 -6 21 -15 7z"/>
<path d="M8690 2250 c0 -5 5 -10 10 -10 6 0 10 5 10 10 0 6 -4 10 -10 10 -5 0
-10 -4 -10 -10z"/>
<path d="M1532 2198 c-17 -17 -15 -28 4 -28 8 0 12 -4 9 -10 -10 -17 22 -11
36 6 11 14 10 18 -6 30 -23 17 -28 17 -43 2z"/>
<path d="M7706 2115 c4 -8 16 -15 28 -15 21 1 21 1 2 15 -25 19 -37 19 -30 0z"/>
<path d="M8150 2115 c0 -9 -6 -15 -12 -14 -32 4 -39 -2 -36 -28 2 -23 8 -28
31 -29 25 -1 27 1 27 42 0 24 -2 44 -5 44 -3 0 -5 -7 -5 -15z m-5 -45 c0 -22
-29 -18 -33 3 -3 14 1 18 15 15 10 -2 18 -10 18 -18z"/>
<path d="M8180 2085 c0 -27 2 -46 5 -43 8 8 9 77 2 85 -4 3 -7 -15 -7 -42z"/>
<path d="M2200 2105 c-10 -12 -10 -21 -2 -40 13 -28 43 -33 62 -10 14 17 0 21
-17 4 -16 -16 -33 -2 -33 28 0 23 3 25 30 19 19 -3 29 -2 25 4 -9 15 -51 12
-65 -5z"/>
<path d="M2727 2113 c-4 -7 -3 -36 2 -65 0 -5 4 -8 9 -8 4 0 7 15 7 34 0 35
-9 54 -18 39z"/>
<path d="M2850 2105 c-10 -12 -10 -21 -2 -40 21 -45 77 -23 70 27 -4 28 -48
37 -68 13z m58 -21 c3 -22 -21 -39 -39 -28 -11 6 -12 38 -2 48 13 13 38 1 41
-20z"/>
<path d="M2943 2080 c0 -25 2 -35 4 -22 3 13 12 22 23 22 11 0 20 -9 23 -22 2
-13 4 -3 4 22 1 25 -1 37 -4 28 -2 -10 -13 -18 -23 -18 -10 0 -21 8 -23 18 -3
9 -5 -3 -4 -28z"/>
<path d="M5050 2108 c0 -9 5 -29 11 -45 l11 -28 13 30 13 30 12 -30 12 -30 14
30 c16 36 18 58 4 50 -5 -3 -10 -16 -11 -28 -1 -20 -2 -19 -12 6 -6 15 -14 27
-19 27 -4 0 -11 -12 -15 -27 l-6 -28 -13 30 c-8 17 -13 23 -14 13z"/>
<path d="M5545 2083 c-8 -20 -12 -39 -9 -42 4 -3 9 0 11 7 6 15 43 16 43 0 0
-6 3 -9 6 -5 8 8 -15 77 -27 77 -5 0 -16 -16 -24 -37z m35 -4 c0 -5 -4 -9 -10
-9 -5 0 -10 7 -10 16 0 8 5 12 10 9 6 -3 10 -10 10 -16z"/>
<path d="M5622 2083 c-2 -39 0 -43 21 -42 16 1 17 3 5 6 -11 3 -18 17 -21 41
l-4 37 -1 -42z"/>
<path d="M7901 2083 c-1 -38 2 -43 21 -43 19 0 20 1 6 13 -9 6 -19 26 -21 42
-3 24 -4 21 -6 -12z"/>
<path d="M8436 2112 c-9 -14 9 -65 25 -70 12 -4 12 -3 1 11 -8 9 -11 25 -7 36
6 20 -9 38 -19 23z"/>
<path d="M8531 2078 c1 -38 2 -40 8 -13 l6 29 21 -27 c12 -15 25 -27 28 -27 3
0 6 18 6 40 0 22 -4 40 -10 40 -5 0 -10 -12 -10 -27 l-1 -28 -17 28 c-23 38
-32 34 -31 -15z"/>
<path d="M8640 2084 c0 -31 -2 -35 -15 -24 -11 9 -15 9 -15 1 0 -18 31 -26 41
-10 12 19 11 69 -1 69 -5 0 -10 -16 -10 -36z"/>
<path d="M2328 2103 c-12 -3 -18 -14 -18 -34 0 -37 18 -38 22 -1 4 36 21 34
30 -4 6 -28 6 -28 5 5 -2 36 -9 42 -39 34z"/>
<path d="M2403 2103 c-18 -7 -16 -52 3 -60 8 -3 20 -1 26 5 7 7 5 10 -8 9 -11
-1 -20 6 -22 17 -3 16 0 18 24 12 24 -6 26 -5 15 8 -14 17 -18 18 -38 9z"/>
<path d="M2520 2100 c0 -6 4 -10 9 -10 5 0 12 -12 14 -27 4 -27 4 -27 6 3 0
20 -5 34 -14 38 -8 3 -15 1 -15 -4z"/>
<path d="M2583 2103 c-7 -2 -12 -19 -12 -36 l1 -32 7 29 c7 34 24 40 29 11 6
-32 22 -42 22 -14 0 14 -5 30 -12 37 -13 13 -16 13 -35 5z"/>
<path d="M2650 2095 c-19 -23 -8 -50 23 -51 23 -1 27 3 27 26 0 16 -7 30 -16
34 -21 8 -20 8 -34 -9z m40 -19 c0 -8 -5 -18 -11 -22 -14 -8 -33 11 -25 25 10
16 36 13 36 -3z"/>
<path d="M5170 2095 c-15 -18 -5 -45 21 -54 9 -3 8 1 -4 13 -19 19 -15 36 9
36 8 0 14 -10 14 -25 0 -14 5 -25 10 -25 6 0 10 14 10 30 0 17 -4 30 -9 30 -5
0 -16 2 -24 5 -7 3 -20 -1 -27 -10z"/>
<path d="M5258 2102 c-19 -4 -26 -62 -8 -62 6 0 10 11 10 24 0 13 6 26 13 29
17 6 5 14 -15 9z"/>
<path d="M5374 2096 c-20 -15 -14 -43 12 -53 20 -8 47 19 39 39 -9 23 -30 29
-51 14z m34 -23 c-4 -22 -22 -20 -26 1 -2 10 3 16 13 16 10 0 15 -7 13 -17z"/>
<path d="M5441 2072 c1 -21 3 -28 6 -17 3 11 11 25 19 31 12 10 11 12 -6 17
-17 4 -20 1 -19 -31z"/>
<path d="M7955 2089 c4 -13 8 -36 9 -51 0 -16 2 -28 4 -28 8 0 43 92 37 98 -3
3 -8 -4 -12 -16 -6 -25 -23 -30 -23 -8 0 8 -5 18 -12 22 -8 5 -9 0 -3 -17z"/>
<path d="M8050 2101 c0 -6 4 -11 9 -11 5 0 12 -12 14 -27 4 -22 4 -20 3 6 0
19 -7 36 -13 39 -7 2 -13 -1 -13 -7z"/>
<path d="M8216 2084 c9 -40 24 -54 24 -22 0 14 -7 31 -16 39 -13 11 -14 9 -8
-17z"/>
<path d="M8379 2094 c-10 -12 -9 -16 9 -21 12 -3 22 -10 22 -15 0 -5 -10 -6
-21 -3 -15 5 -19 4 -15 -4 11 -17 46 -13 46 4 0 9 -7 18 -15 21 -8 4 -15 10
-15 15 0 4 7 6 15 3 8 -4 15 -4 15 -1 0 13 -30 14 -41 1z"/>
<path d="M2280 2070 c0 -16 5 -30 10 -30 6 0 10 14 10 30 0 17 -4 30 -10 30
-5 0 -10 -13 -10 -30z"/>
<path d="M2462 2070 c0 -19 2 -27 5 -17 2 9 2 25 0 35 -3 9 -5 1 -5 -18z"/>
<path d="M2490 2068 c0 -36 4 -35 14 5 4 16 2 27 -4 27 -5 0 -10 -14 -10 -32z"/>
<path d="M2772 2070 c0 -19 2 -27 5 -17 2 9 2 25 0 35 -3 9 -5 1 -5 -18z"/>
<path d="M5291 2068 c1 -22 3 -26 6 -13 3 11 10 26 15 33 8 9 6 12 -6 12 -12
0 -16 -9 -15 -32z"/>
<path d="M5342 2070 c0 -19 2 -27 5 -17 2 9 2 25 0 35 -3 9 -5 1 -5 -18z"/>
<path d="M8020 2068 c0 -36 12 -31 16 7 1 14 -2 25 -7 25 -5 0 -9 -14 -9 -32z"/>
<path d="M8252 2073 c2 -23 8 -28 31 -29 24 -1 27 2 26 30 -1 29 -2 29 -8 7
-12 -43 -37 -38 -32 7 1 6 -3 12 -9 12 -6 0 -10 -12 -8 -27z"/>
<path d="M8331 2068 c2 -28 2 -29 6 -8 3 14 10 28 17 32 7 5 5 8 -6 8 -14 0
-18 -8 -17 -32z"/>
<path d="M4536 2074 c-5 -14 -4 -15 9 -4 17 14 19 20 6 20 -5 0 -12 -7 -15
-16z"/>
<path d="M5485 2040 c3 -5 8 -10 11 -10 2 0 4 5 4 10 0 6 -5 10 -11 10 -5 0
-7 -4 -4 -10z"/>
<path d="M1350 1890 c0 -5 18 -23 40 -40 33 -26 46 -31 68 -25 l27 8 -25 7
c-25 8 -20 10 38 15 33 3 62 20 62 37 0 5 -46 8 -105 7 -58 -1 -105 -5 -105
-9z"/>
<path d="M7620 1885 c-7 -9 -10 -18 -7 -21 7 -8 47 14 47 26 0 15 -26 12 -40
-5z"/>
<path d="M4252 1853 c4 -22 38 -30 38 -10 0 8 -7 18 -16 21 -23 9 -26 8 -22
-11z"/>
<path d="M1551 1830 c-1 -8 -4 -26 -7 -40 -5 -22 -4 -23 6 -7 6 10 9 28 7 40
-2 12 -5 15 -6 7z"/>
<path d="M5632 1770 c0 -19 2 -27 5 -17 2 9 2 25 0 35 -3 9 -5 1 -5 -18z"/>
</g>
</svg>
